<?xml version="1.0" encoding="utf-8"?>
<!-- Generator: Adobe Illustrator 17.0.0, SVG Export Plug-In . SVG Version: 6.00 Build 0)  -->
<!DOCTYPE svg PUBLIC "-//W3C//DTD SVG 1.1//EN" "http://www.w3.org/Graphics/SVG/1.1/DTD/svg11.dtd">
<svg version="1.1" id="Capa_1" xmlns="http://www.w3.org/2000/svg" xmlns:xlink="http://www.w3.org/1999/xlink" x="0px" y="0px"
	 width="30px" height="30px" viewBox="-5 -5 30 30" enable-background="new -5 -5 30 30" xml:space="preserve">
<g>
	<path id="MobileMe_3_" fill="#9C9C9E" d="M25.005,14.002c0,3.279-2.637,5.942-5.89,5.942H0.89c-3.253,0-5.89-2.663-5.89-5.942
		c0-2.941,2.151-5.409,4.963-5.855C-0.074,7.94-0.092,7.724-0.092,7.504c0-2.079,1.67-3.754,3.735-3.754
		c0.922,0,1.759,0.329,2.407,0.885c1.165-2.625,2.648-5.028,6.821-5.028c5.047,0,7.447,3.929,7.447,8.072
		c0,0.177-0.006,0.35-0.024,0.512C22.984,8.748,25.005,11.147,25.005,14.002z"/>
</g>
</svg>
