<?xml version="1.0" encoding="utf-8"?>
<!-- Generator: Adobe Illustrator 17.0.0, SVG Export Plug-In . SVG Version: 6.00 Build 0)  -->
<!DOCTYPE svg PUBLIC "-//W3C//DTD SVG 1.1//EN" "http://www.w3.org/Graphics/SVG/1.1/DTD/svg11.dtd">
<svg version="1.1" id="Capa_1" xmlns="http://www.w3.org/2000/svg" xmlns:xlink="http://www.w3.org/1999/xlink" x="0px" y="0px"
	 width="30px" height="30px" viewBox="-5 -5 30 30" enable-background="new -5 -5 30 30" xml:space="preserve">
<g>
	<g>
		<path id="MobileMe_3_" fill="#6B6B6E" d="M25.012,10.04c0,3.28-2.638,5.944-5.891,5.944H0.891C-2.362,15.984-5,13.321-5,10.04
			c0-2.942,2.151-5.411,4.965-5.857c-0.037-0.207-0.055-0.422-0.055-0.642c0-2.08,1.671-3.755,3.735-3.755
			c0.922,0,1.759,0.329,2.407,0.885c1.165-2.626,2.648-5.029,6.823-5.029c5.048,0,7.448,3.93,7.448,8.074
			c0,0.177-0.006,0.35-0.024,0.512C22.991,4.785,25.012,7.184,25.012,10.04z"/>
	</g>
	<g>
		<path fill="#4594D0" d="M1.345,24.223c-0.419-0.255-0.552-0.807-0.299-1.241l2.407-3.902c0.255-0.419,0.807-0.552,1.241-0.299
			c0.419,0.255,0.552,0.807,0.299,1.241l-2.407,3.902c-0.165,0.269-0.464,0.434-0.762,0.434C1.659,24.358,1.495,24.313,1.345,24.223
			z"/>
		<path fill="#4594D0" d="M8.371,24.223c-0.419-0.255-0.552-0.807-0.299-1.241l2.407-3.902c0.255-0.419,0.807-0.552,1.241-0.299
			c0.419,0.255,0.552,0.807,0.299,1.241l-2.407,3.902c-0.165,0.269-0.464,0.434-0.762,0.434C8.686,24.358,8.521,24.313,8.371,24.223
			z"/>
		<path fill="#4594D0" d="M15.249,24.223c-0.419-0.255-0.552-0.807-0.299-1.241l2.407-3.902c0.255-0.419,0.807-0.552,1.241-0.299
			c0.419,0.255,0.552,0.807,0.299,1.241l-2.407,3.902c-0.165,0.269-0.464,0.434-0.762,0.434
			C15.564,24.358,15.399,24.313,15.249,24.223z"/>
	</g>
</g>
</svg>
